<?xml version="1.0" standalone="no"?>
<!DOCTYPE svg PUBLIC "-//W3C//DTD SVG 20010904//EN"
 "http://www.w3.org/TR/2001/REC-SVG-20010904/DTD/svg10.dtd">
<svg version="1.0" xmlns="http://www.w3.org/2000/svg"
 width="512.000000pt" height="512.000000pt" viewBox="0 0 512.000000 512.000000"
 preserveAspectRatio="xMidYMid meet">
<metadata>
Created by potrace 1.14, written by Peter Selinger 2001-2017
</metadata>
<g transform="translate(0.000000,512.000000) scale(0.100000,-0.100000)"
fill="#000000" stroke="none">
<path d="M0 2560 l0 -2560 2560 0 2560 0 0 2560 0 2560 -2560 0 -2560 0 0
-2560z m4919 1864 c76 -22 144 -92 167 -170 40 -139 -9 -316 -202 -728 -152
-323 -282 -554 -407 -719 -32 -43 -57 -80 -55 -81 1 -1 20 -13 40 -25 82 -49
151 -155 185 -281 47 -181 -4 -613 -108 -918 -69 -200 -192 -422 -246 -443
-128 -48 -269 199 -332 585 -31 186 -41 329 -41 588 l0 236 -82 -48 c-59 -34
-116 -81 -193 -158 -172 -171 -353 -293 -475 -321 -113 -26 -245 -3 -333 58
-152 104 -186 307 -87 519 24 52 30 77 30 136 1 243 162 490 401 616 303 158
661 36 780 -265 11 -28 13 -23 34 85 30 152 48 218 102 384 118 363 274 649
442 809 149 142 250 180 380 141z m-1869 -112 c29 -28 40 -49 45 -84 8 -53 0
-87 -98 -413 -89 -298 -142 -499 -236 -895 -80 -336 -180 -788 -201 -910 -7
-36 -16 -71 -22 -77 -16 -19 -53 -16 -73 7 -17 18 -17 34 -11 192 14 352 44
639 101 974 56 328 125 629 211 924 75 258 114 320 201 320 39 0 51 -5 83 -38z
m-1581 -67 c34 -17 101 -95 128 -150 64 -127 58 -388 -18 -720 -16 -71 -38
-159 -49 -194 l-19 -64 37 35 c131 123 278 188 425 188 201 0 395 -116 478
-285 32 -66 34 -75 34 -175 0 -115 -17 -180 -79 -315 -125 -269 -384 -560
-582 -652 -54 -26 -69 -28 -174 -28 -106 0 -119 2 -168 28 -177 93 -241 293
-168 522 15 46 21 85 18 113 -5 46 -17 55 -28 20 -28 -90 -336 -699 -471 -933
-107 -186 -286 -450 -397 -590 -104 -130 -285 -327 -321 -351 -28 -18 -71 -4
-85 28 -9 20 1 44 76 173 141 245 636 1267 620 1282 -2 2 -14 -1 -27 -7 -12
-7 -59 -15 -103 -17 -67 -4 -91 -1 -137 16 -187 71 -280 282 -281 637 0 383
140 792 350 1016 98 105 221 133 316 73 58 -36 81 -72 72 -109 -5 -20 -21 -33
-69 -54 -71 -33 -115 -77 -192 -195 -180 -277 -261 -602 -235 -932 15 -176 50
-274 108 -296 46 -18 136 -4 218 35 87 41 76 23 208 354 179 448 276 825 321
1237 21 200 42 292 68 310 27 19 90 19 126 0z m1696 -2435 c109 -18 236 -86
266 -141 20 -39 -5 -41 -71 -7 -57 30 -71 33 -144 32 -109 -1 -270 -45 -488
-135 -475 -193 -634 -244 -805 -256 -191 -13 -348 54 -432 185 -38 59 -47 99
-32 145 26 78 76 80 164 8 35 -29 77 -54 96 -57 18 -4 81 -4 140 -1 115 6 269
41 591 135 341 100 527 124 715 92z"/>
<path d="M4738 3999 c-192 -269 -333 -616 -413 -1017 -32 -157 -31 -168 5
-107 130 220 478 1115 458 1177 -3 7 -25 -17 -50 -53z"/>
<path d="M3434 3009 c-61 -23 -173 -115 -227 -184 -71 -93 -147 -278 -147
-357 0 -84 153 -82 330 5 55 27 138 136 207 274 68 136 72 226 10 263 -41 25
-106 25 -173 -1z"/>
<path d="M4278 2449 l-31 -30 6 -327 c6 -353 37 -717 58 -695 11 12 57 251 70
366 7 59 9 192 7 340 -5 214 -8 250 -27 310 -25 77 -37 82 -83 36z"/>
<path d="M2897 2308 c7 -69 32 -128 58 -138 23 -9 76 0 126 20 31 13 39 30 14
30 -29 0 -110 48 -150 89 -21 23 -42 41 -46 41 -4 0 -5 -19 -2 -42z"/>
<path d="M1951 3005 c-79 -37 -186 -149 -239 -251 -39 -75 -71 -183 -86 -290
-17 -118 106 -119 305 -2 74 44 74 44 131 153 31 61 67 140 79 178 24 75 28
163 8 195 -30 48 -115 55 -198 17z"/>
<path d="M1480 2258 c0 -33 19 -87 42 -120 24 -34 63 -37 126 -8 39 18 49 40
19 40 -24 0 -114 48 -150 80 l-37 32 0 -24z"/>
</g>
</svg>
